<?xml version="1.0" standalone="no"?>
<!DOCTYPE svg PUBLIC "-//W3C//DTD SVG 20010904//EN"
 "http://www.w3.org/TR/2001/REC-SVG-20010904/DTD/svg10.dtd">
<svg version="1.0" xmlns="http://www.w3.org/2000/svg"
 width="2272.000000pt" height="2272.000000pt" viewBox="0 0 2272.000000 2272.000000"
 preserveAspectRatio="xMidYMid meet">
<metadata>
Created by potrace 1.14, written by Peter Selinger 2001-2017
</metadata>
<g transform="translate(0.000000,2272.000000) scale(0.100000,-0.100000)"
fill="#000000" stroke="none">
<path d="M21507 13987 c-99 -46 -71 -192 38 -198 53 -3 63 0 94 32 85 85 -20
217 -132 166z"/>
<path d="M17149 13906 c0 -68 0 -1263 0 -1301 l1 -30 62 2 c35 1 72 2 84 2 21
1 21 3 20 266 -1 146 1 266 4 266 18 4 332 4 338 -1 4 -3 14 -18 23 -35 9 -16
30 -55 46 -85 17 -30 47 -86 68 -125 21 -38 45 -83 55 -100 10 -16 34 -61 55
-100 20 -38 41 -74 46 -79 8 -9 186 -13 193 -5 2 2 -30 63 -71 134 -41 72 -83
148 -94 170 -12 22 -30 57 -42 77 -95 163 -106 196 -65 202 24 3 114 72 142
108 95 126 107 334 27 485 -43 81 -145 154 -256 183 -35 9 -140 14 -342 15
l-293 2 -1 -51z m581 -108 c133 -33 200 -128 195 -278 -5 -144 -78 -226 -219
-245 -65 -9 -374 -11 -382 -2 -6 5 -10 483 -5 530 1 8 378 3 411 -5z"/>
<path d="M19808 13625 c-2 -2 -28 -6 -58 -9 -105 -12 -228 -92 -265 -171 -44
-93 -35 -203 22 -277 28 -36 113 -95 149 -103 10 -2 46 -12 79 -21 33 -9 67
-17 75 -19 181 -37 224 -60 248 -132 15 -45 -1 -93 -43 -132 -29 -26 -93 -58
-120 -61 -3 0 -6 0 -7 -1 -19 -5 -98 -4 -98 2 0 4 -9 5 -20 2 -33 -9 -106 25
-144 68 -20 21 -36 45 -36 52 -1 34 -15 38 -88 21 -62 -14 -72 -19 -72 -38 0
-12 7 -31 15 -42 8 -12 12 -24 9 -26 -2 -3 17 -29 43 -58 55 -61 137 -104 223
-116 215 -29 391 32 472 165 28 48 33 65 35 129 3 118 -42 189 -156 246 -39
20 -201 66 -290 82 -13 3 -48 16 -76 30 -84 42 -108 106 -65 181 29 52 97 85
184 89 107 4 175 -29 226 -111 12 -20 27 -34 34 -32 6 2 37 12 69 21 31 9 57
19 57 21 0 2 -8 21 -17 42 -50 108 -148 175 -281 192 -64 8 -99 10 -104 6z"/>
<path d="M20750 13616 c-71 -12 -163 -54 -201 -91 -68 -68 -84 -105 -84 -200
0 -115 40 -182 140 -233 56 -28 83 -37 231 -72 72 -17 145 -40 163 -51 42 -25
71 -76 67 -114 -2 -16 -4 -35 -5 -41 -4 -35 -94 -98 -159 -111 -144 -28 -265
19 -307 120 -12 30 -20 36 -38 33 -26 -6 -61 -13 -99 -22 -35 -7 -36 -28 -6
-84 82 -153 245 -217 470 -187 155 22 275 117 303 241 26 117 -15 218 -116
282 -40 25 -135 60 -190 69 -19 3 -52 11 -74 17 -22 6 -42 12 -45 13 -49 9
-110 36 -137 60 -64 55 -52 149 25 200 43 28 77 37 152 40 95 3 169 -34 210
-106 17 -32 26 -39 42 -33 21 6 23 7 76 19 18 4 35 12 38 17 10 16 -38 100
-80 141 -89 87 -220 120 -376 93z"/>
<path d="M22265 13623 c-58 -6 -147 -35 -194 -62 -56 -34 -89 -65 -131 -125
-30 -45 -30 -45 -9 -56 11 -7 46 -20 77 -31 53 -18 57 -18 66 -2 18 33 81 90
116 106 143 66 316 25 351 -82 19 -55 19 -123 2 -143 -19 -21 -69 -33 -178
-43 -33 -3 -67 -8 -75 -10 -8 -2 -39 -7 -69 -10 -128 -16 -237 -65 -287 -130
-75 -98 -61 -282 29 -377 57 -61 159 -100 267 -103 81 -2 131 9 195 42 46 24
115 87 115 105 0 4 4 8 9 8 5 0 9 -24 9 -52 0 -89 -5 -83 65 -82 34 1 70 2 80
3 17 1 18 21 15 399 l-3 397 -27 58 c-59 125 -165 184 -343 191 -27 1 -63 0
-80 -1z m291 -635 c-3 -108 -17 -155 -64 -204 -100 -106 -310 -118 -404 -24
-25 24 -39 48 -40 66 0 16 -2 36 -3 44 -1 8 5 31 12 50 30 75 98 103 302 126
30 3 84 14 120 24 36 9 69 18 73 19 3 0 5 -45 4 -101z"/>
<path d="M18361 13605 c-10 -13 -7 -695 3 -760 21 -131 99 -225 223 -268 43
-15 197 -14 216 1 7 5 23 12 37 15 43 10 120 79 146 130 8 15 18 27 22 27 4 0
7 -39 7 -87 l-1 -88 73 1 c40 0 76 4 81 8 4 4 7 237 7 517 l0 509 -32 1 c-18
0 -49 1 -68 1 -19 0 -41 -1 -48 -1 -10 -1 -12 -67 -12 -308 1 -306 -5 -385
-28 -433 -19 -40 -79 -101 -120 -121 -40 -21 -127 -41 -127 -30 0 4 -13 6 -28
5 -82 -5 -172 80 -190 180 -3 17 -6 183 -6 369 -1 293 -3 337 -16 338 -105 4
-133 2 -139 -6z"/>
<path d="M21479 13605 c-1 -5 -2 -238 -3 -518 -1 -399 2 -507 12 -508 16 -1
95 -1 125 0 l24 1 0 515 0 515 -41 1 c-23 0 -58 1 -79 2 -20 1 -37 -2 -38 -8z"/>
<path d="M0 10854 l0 -2072 300 0 c298 1 300 1 301 22 0 12 0 686 1 1499 0
1471 0 1478 20 1475 14 -2 27 -21 44 -63 13 -33 28 -69 33 -80 36 -80 51 -116
51 -121 0 -4 18 -48 39 -98 21 -50 58 -138 82 -196 23 -58 46 -109 51 -114 4
-6 8 -16 8 -23 0 -7 14 -42 30 -78 17 -36 36 -84 43 -105 6 -22 15 -40 19 -40
5 0 8 -7 8 -15 0 -8 13 -45 30 -82 63 -145 232 -559 233 -570 0 -7 4 -13 9
-13 4 0 8 -6 8 -13 0 -8 15 -49 34 -93 19 -43 60 -142 91 -219 32 -77 94 -225
137 -330 44 -104 81 -194 82 -200 1 -5 12 -32 24 -59 12 -27 22 -54 22 -60 0
-7 4 -16 8 -21 8 -9 19 -33 64 -142 6 -15 12 -30 12 -33 1 -3 21 -53 46 -112
l44 -108 43 0 c24 -1 86 -1 138 -1 52 0 146 0 209 1 l113 0 18 48 c10 26 26
65 36 87 9 22 34 81 54 130 20 50 41 99 45 110 30 66 210 506 210 510 0 3 9
24 19 48 22 48 101 238 168 402 24 61 50 124 57 140 8 17 30 71 50 120 20 50
41 99 46 110 31 69 100 242 100 252 0 7 5 13 12 13 6 0 9 3 6 6 -5 5 37 113
77 199 7 17 66 158 130 315 65 157 126 304 136 327 10 23 19 46 19 51 0 5 6
22 14 38 8 16 19 41 25 56 7 18 17 26 30 25 12 -1 20 -6 20 -12 -1 -5 -1 -679
0 -1496 l1 -1486 300 -1 300 0 0 2069 c0 1138 -3 2069 -7 2070 -5 0 -176 1
-382 2 l-373 2 -19 -40 c-10 -22 -48 -112 -84 -200 -36 -88 -70 -169 -75 -180
-5 -11 -44 -103 -86 -205 -42 -102 -81 -196 -87 -210 -5 -14 -11 -30 -12 -36
-2 -6 -14 -35 -28 -65 -13 -30 -43 -101 -67 -159 -64 -159 -70 -174 -80 -192
-6 -10 -10 -25 -10 -33 0 -8 -4 -15 -10 -15 -5 0 -10 -7 -10 -16 0 -9 -6 -30
-14 -47 -8 -18 -37 -86 -65 -152 -27 -66 -57 -138 -67 -160 -9 -22 -18 -45
-19 -51 -2 -6 -11 -29 -20 -50 -23 -52 -24 -56 -95 -229 -34 -82 -69 -163 -78
-180 -9 -16 -15 -31 -14 -33 1 -1 -5 -19 -14 -40 -8 -20 -47 -113 -86 -207
-38 -93 -76 -183 -83 -200 -8 -16 -30 -70 -50 -120 -20 -49 -43 -104 -51 -122
-7 -17 -14 -34 -14 -38 0 -3 -12 -32 -26 -63 -14 -31 -29 -66 -34 -77 -37 -94
-43 -104 -62 -102 -10 2 -22 7 -27 13 -5 5 -48 104 -96 219 -48 116 -94 226
-102 245 -8 19 -19 44 -23 55 -4 11 -23 56 -41 100 -19 44 -34 82 -34 85 -1 3
-11 27 -23 54 -12 27 -22 51 -22 53 0 3 -6 19 -14 36 -7 18 -21 48 -29 67 -8
19 -36 85 -60 145 -25 61 -91 220 -147 355 -56 135 -118 283 -137 330 -19 47
-40 99 -47 115 -54 126 -167 399 -230 555 -26 63 -53 129 -60 145 -8 17 -51
120 -96 230 -45 110 -90 218 -99 240 -10 22 -31 70 -46 108 -15 37 -31 67 -34
68 -3 0 -176 1 -384 2 l-377 2 0 -2071z"/>
<path d="M11908 12618 c-2 -7 -3 -174 -3 -370 l1 -358 -45 -1 c-25 0 -127 -1
-226 -1 -99 0 -182 -4 -185 -8 -3 -5 -5 -113 -4 -242 l0 -233 200 -2 c109 -1
213 -2 229 -2 l31 -1 1 -977 c1 -956 1 -980 21 -1064 37 -153 98 -265 199
-366 108 -107 259 -190 398 -218 22 -5 47 -10 55 -12 73 -17 282 -23 396 -11
67 8 173 30 216 47 22 8 26 15 22 38 -2 15 -7 34 -9 42 -5 12 -28 114 -41 181
-3 14 -14 66 -26 115 -11 50 -23 99 -25 111 -4 20 -7 20 -68 9 -58 -11 -250
-13 -285 -2 -111 32 -198 114 -214 202 -3 13 -7 29 -10 34 -15 24 -18 182 -18
986 0 479 1 875 1 880 1 6 114 10 321 9 l320 -1 1 31 c1 37 1 438 0 447 -1 4
-143 6 -317 6 -215 0 -318 3 -322 10 -4 6 -7 174 -6 372 l1 361 -302 0 c-234
0 -304 -3 -307 -12z"/>
<path d="M6418 11924 c-2 -1 -32 -5 -68 -8 -79 -8 -108 -13 -185 -33 -33 -8
-67 -17 -75 -18 -82 -19 -290 -122 -391 -194 -93 -67 -209 -178 -272 -261 -23
-30 -45 -56 -49 -58 -5 -2 -8 -8 -8 -13 0 -5 -15 -32 -34 -61 -46 -73 -98
-179 -130 -268 -15 -41 -30 -82 -33 -90 -11 -27 -49 -191 -58 -245 -12 -75
-14 -90 -21 -175 -15 -177 -7 -390 21 -545 4 -22 8 -49 10 -60 16 -107 97
-340 152 -438 18 -33 33 -61 33 -64 0 -8 84 -128 124 -178 45 -54 133 -142
174 -175 99 -76 158 -115 247 -159 89 -44 225 -96 280 -107 17 -3 68 -15 85
-19 3 -1 28 -5 55 -10 28 -4 59 -10 70 -12 11 -2 99 -6 195 -9 295 -7 517 35
750 143 117 54 237 138 326 227 80 80 180 219 210 293 9 21 22 52 29 68 18 42
36 98 32 101 -2 2 -66 15 -143 29 -128 23 -190 34 -221 41 -6 1 -29 5 -50 8
-21 3 -47 7 -58 10 -11 2 -39 7 -62 11 l-42 7 -26 -57 c-43 -95 -108 -173
-206 -248 -51 -39 -188 -96 -277 -115 -75 -16 -122 -20 -240 -17 -81 2 -157 5
-169 8 -301 74 -476 208 -595 454 -60 125 -110 357 -99 458 1 7 379 10 1113
10 l1113 0 -1 200 c0 110 -4 232 -8 271 -6 67 -8 83 -21 144 -2 14 -6 36 -9
50 -22 133 -137 445 -168 458 -4 2 -8 9 -8 16 0 14 -88 142 -129 189 -118 133
-247 231 -401 305 -73 35 -198 81 -222 82 -4 1 -26 7 -48 15 -22 8 -43 14 -45
14 -8 0 -98 12 -125 18 -28 5 -318 12 -322 7z m287 -509 c22 -4 46 -8 53 -8 6
0 12 -4 12 -9 0 -4 10 -8 23 -8 13 0 28 -5 35 -12 7 -7 12 -9 12 -5 0 4 31 -8
68 -27 75 -38 159 -101 206 -154 17 -20 36 -40 41 -46 32 -33 98 -155 120
-221 43 -127 68 -314 43 -316 -7 -1 -374 -2 -816 -3 l-804 -1 6 65 c17 180
110 379 239 511 59 59 162 137 193 145 13 3 24 10 24 14 0 11 178 68 242 78
60 10 243 8 303 -3z"/>
<path d="M9617 11924 c-1 -1 -29 -5 -62 -8 -33 -4 -67 -9 -75 -11 -8 -3 -29
-7 -45 -9 -54 -8 -139 -30 -220 -58 -81 -27 -205 -89 -279 -139 -80 -54 -216
-192 -247 -251 -6 -13 -15 -25 -19 -28 -20 -16 -86 -192 -98 -263 -9 -55 -7
-271 2 -322 19 -99 66 -209 125 -290 132 -184 346 -306 681 -390 87 -22 118
-29 175 -40 11 -2 31 -6 44 -9 14 -3 79 -17 145 -31 144 -31 217 -47 231 -50
6 -1 12 -3 15 -4 116 -24 292 -116 323 -167 4 -7 13 -19 20 -26 33 -36 52 -90
61 -171 4 -34 -13 -129 -25 -141 -5 -6 -9 -17 -9 -27 0 -9 -27 -46 -60 -82
-48 -52 -78 -74 -153 -111 -50 -25 -104 -47 -119 -50 -15 -3 -31 -7 -35 -9 -5
-3 -30 -8 -58 -12 -27 -4 -61 -9 -75 -11 -38 -6 -231 -5 -265 1 -16 3 -46 8
-65 11 -75 13 -192 60 -250 102 -48 35 -122 113 -140 148 -8 16 -22 40 -31 54
-9 14 -22 47 -30 73 -18 62 -26 68 -74 57 -22 -4 -62 -11 -90 -14 -27 -3 -90
-12 -140 -21 -49 -8 -106 -16 -125 -19 -46 -6 -106 -15 -148 -22 -31 -5 -33
-8 -27 -32 4 -15 9 -38 11 -52 14 -78 80 -221 145 -316 42 -61 127 -150 189
-197 30 -23 57 -44 60 -47 40 -40 316 -155 417 -174 215 -39 239 -41 438 -41
308 1 445 28 725 141 25 10 47 21 50 25 3 3 16 12 30 19 77 39 166 107 244
187 67 69 69 72 109 135 29 47 42 71 77 153 14 32 31 92 35 122 2 16 8 55 12
88 13 91 3 221 -23 314 -52 181 -190 348 -364 439 -19 10 -51 28 -70 39 -19
11 -48 25 -65 31 -16 6 -55 20 -85 31 -48 18 -175 56 -220 66 -8 2 -45 10 -81
19 -37 8 -79 17 -93 20 -14 3 -34 7 -44 10 -9 3 -28 8 -42 10 -14 3 -45 10
-70 16 -25 6 -56 13 -70 16 -14 3 -41 9 -60 14 -19 5 -46 11 -60 14 -52 10
-139 36 -206 61 -138 52 -217 114 -262 204 -38 79 -38 190 0 273 54 117 202
219 365 253 161 34 355 26 482 -19 128 -46 254 -156 312 -273 19 -37 38 -71
42 -74 5 -3 8 -10 8 -15 -1 -12 15 -12 64 -1 22 5 51 10 65 12 14 3 39 7 55
10 17 3 103 18 193 34 89 15 165 30 168 33 8 8 -45 157 -79 223 -81 157 -222
312 -350 386 -106 62 -269 128 -352 143 -17 3 -41 8 -55 11 -94 21 -158 27
-338 29 -89 1 -164 1 -165 0z"/>
<path d="M14956 11922 c-2 -2 -15 -5 -28 -6 -84 -11 -134 -18 -139 -22 -3 -2
-19 -6 -36 -8 -17 -3 -61 -15 -99 -27 -64 -19 -99 -34 -194 -76 -37 -17 -181
-102 -190 -112 -3 -3 -23 -19 -45 -35 -48 -35 -188 -175 -230 -231 -76 -99
-195 -311 -195 -346 0 -8 -4 -19 -9 -24 -10 -11 -56 -153 -72 -224 -17 -72
-19 -84 -25 -121 -3 -19 -7 -46 -10 -60 -30 -168 -22 -527 17 -706 6 -32 12
-67 11 -76 0 -10 3 -20 9 -23 5 -4 9 -15 9 -26 0 -26 56 -192 81 -241 10 -20
19 -44 19 -53 0 -8 3 -15 8 -15 4 0 18 -25 32 -55 14 -30 28 -55 32 -55 5 0 8
-5 8 -11 0 -32 181 -245 285 -334 85 -74 279 -186 370 -215 22 -7 45 -15 50
-19 6 -3 15 -6 20 -7 6 -1 44 -11 85 -22 141 -39 214 -47 410 -47 173 1 261 9
350 32 14 3 31 7 39 9 8 2 26 6 40 10 14 4 28 8 31 9 172 42 409 182 555 329
91 92 215 254 215 281 0 8 4 15 8 15 24 0 152 320 167 415 1 11 7 38 13 60 13
51 25 127 37 240 6 57 7 322 1 375 -15 154 -17 163 -61 362 -31 139 -177 446
-250 524 -5 6 -23 29 -40 50 -164 210 -454 390 -725 448 -69 15 -120 25 -165
31 -54 8 -382 14 -389 7z m292 -508 c77 -9 213 -50 223 -66 3 -5 10 -9 14 -7
15 5 143 -88 196 -143 48 -49 132 -161 134 -178 1 -3 17 -39 37 -80 43 -90 81
-215 103 -345 28 -164 24 -414 -10 -602 -5 -29 -44 -174 -52 -193 -3 -8 -7
-19 -8 -25 -6 -26 -64 -137 -102 -198 -44 -68 -142 -174 -198 -213 -62 -43
-155 -88 -205 -99 -3 -1 -23 -6 -45 -12 -80 -22 -273 -32 -335 -18 -14 4 -38
9 -55 12 -170 30 -354 156 -464 316 -61 89 -127 248 -156 372 -4 17 -6 30 -6
30 0 0 -4 18 -9 40 -30 129 -33 502 -5 605 2 8 6 31 9 50 9 59 55 207 85 275
70 155 195 304 317 377 98 60 231 99 359 105 61 3 112 7 114 9 2 2 8 1 13 -2
5 -3 25 -8 46 -10z"/>
</g>
</svg>
